<svg width="512" height="512" viewBox="0 0 512 512" fill="none" xmlns="http://www.w3.org/2000/svg">
<g clip-path="url(#clip0)">
<path d="M405.387 362.612C370.185 362.612 341.547 391.251 341.547 426.452C341.547 461.653 370.186 490.292 405.387 490.292C440.588 490.292 469.227 461.653 469.227 426.452C469.227 391.251 440.588 362.612 405.387 362.612ZM405.387 451.988C391.304 451.988 379.851 440.535 379.851 426.452C379.851 412.369 391.304 400.916 405.387 400.916C419.47 400.916 430.923 412.369 430.923 426.452C430.923 440.535 419.47 451.988 405.387 451.988Z" fill="white"/>
<path d="M507.927 115.875C504.301 111.234 498.74 108.527 492.848 108.527H118.22L100.983 36.407C98.921 27.789 91.215 21.705 82.354 21.705H19.152C8.574 21.704 0 30.278 0 40.856C0 51.434 8.574 60.008 19.152 60.008H67.237L129.481 320.451C131.543 329.076 139.249 335.153 148.11 335.153H446.245C455.049 335.153 462.722 329.152 464.835 320.61L511.439 132.281C512.849 126.562 511.553 120.516 507.927 115.875ZM431.261 296.85H163.227L127.374 146.831H468.377L431.261 296.85Z" fill="white"/>
<path d="M173.646 362.612C138.444 362.612 109.806 391.251 109.806 426.452C109.806 461.653 138.445 490.292 173.646 490.292C208.847 490.292 237.486 461.653 237.486 426.452C237.486 391.251 208.847 362.612 173.646 362.612ZM173.646 451.988C159.563 451.988 148.11 440.535 148.11 426.452C148.11 412.369 159.563 400.916 173.646 400.916C187.729 400.916 199.182 412.369 199.182 426.452C199.182 440.535 187.729 451.988 173.646 451.988Z" fill="white"/>
</g>
<defs>
<clipPath id="clip0">
<rect width="511.997" height="511.997" fill="white"/>
</clipPath>
</defs>
</svg>
