<svg id="Capa_1" enable-background="new 0 0 512 512" height="512" viewBox="0 0 512 512" width="512" xmlns="http://www.w3.org/2000/svg"><g><g><path d="m467 89h-422c-24.813 0-45 20.187-45 45v244c0 24.813 20.187 45 45 45h422c24.813 0 45-20.187 45-45v-244c0-24.813-20.187-45-45-45zm15 289c0 8.271-6.729 15-15 15h-422c-8.271 0-15-6.729-15-15v-178h452zm0-208h-452v-36c0-8.271 6.729-15 15-15h422c8.271 0 15 6.729 15 15z"/></g><g><path d="m96 343h128c8.284 0 15-6.716 15-15s-6.716-15-15-15h-128c-8.284 0-15 6.716-15 15s6.716 15 15 15z"/></g><g><path d="m96 279h128c8.284 0 15-6.716 15-15s-6.716-15-15-15h-128c-8.284 0-15 6.716-15 15s6.716 15 15 15z"/></g><g><path d="m336 343h96c8.284 0 15-6.716 15-15v-64c0-8.284-6.716-15-15-15h-96c-8.284 0-15 6.716-15 15v64c0 8.284 6.716 15 15 15zm15-64h66v34h-66z"/></g></g></svg>