<svg id="Capa_1" enable-background="new 0 0 512 512" height="512" viewBox="0 0 512 512" width="512" xmlns="http://www.w3.org/2000/svg"><g><g><path d="m256 151c6.301 0 12.599.601 18.6 1.8l114-114.3c-38.7-24-84-38.5-132.6-38.5s-93.9 14.5-132.599 38.5l114.3 114.3c6-1.199 11.998-1.8 18.299-1.8z"/><path d="m388.599 473.5-114.299-114.3c-6 1.199-11.999 1.8-18.3 1.8s-12.299-.601-18.3-1.8l-114.3 114.3c38.7 24 84 38.5 132.6 38.5s93.9-14.5 132.599-38.5z"/><path d="m359.2 237.7c1.199 6 1.8 11.999 1.8 18.3s-.601 12.299-1.8 18.3l114.3 114.3c24-38.7 38.5-84 38.5-132.6s-14.5-93.9-38.5-132.599z"/><path d="m163.599 206.201c9.901-18.001 24.6-32.701 42.601-42.601 5.521 5.504-84.434-84.203-109.2-108.9-11.4-11.401-30.6-11.699-42.599.3-11.4 11.4-11.4 30.3.298 42.001-7.188-7.209 105.89 106.182 108.9 109.2z"/><path d="m163.599 306.099c-4.389 4.389-115.891 115.891-108.9 108.9-11.999 11.701-11.698 30.601.301 42.6 11.4 11.4 30.3 11.4 42.001-.298 24.767-24.697 114.721-114.404 109.2-108.9-18.001-9.601-32.701-24.3-42.602-42.302z"/><path d="m348.401 206.201c3.01-3.018 116.089-116.409 108.9-109.2 11.699-11.7 11.699-30.601-.3-42.599-11.1-11.102-30.901-11.102-42.001.298-24.767 24.697-114.721 114.404-109.2 108.9 18 9.9 32.7 24.6 42.601 42.601z"/><path d="m457.599 457c11.4-11.4 11.4-30.3-.298-42.001-24.697-24.767-114.404-114.721-108.9-109.2-9.6 18.001-24.3 32.701-42.301 42.601 4.389 4.389 115.891 115.891 108.9 108.9 11.099 11.401 30 12.3 42.599-.3z"/></g><path d="m151.8 274.6c-.199-6-.8-12.299-.8-18.6s.601-12.299 1.8-18.3l-114.3-114.3c-24 38.7-38.5 84-38.5 132.6s14.5 93.9 37.5 132.599z"/></g></svg>